<?xml version="1.0" encoding="iso-8859-1"?>
<!-- Generator: Adobe Illustrator 16.0.0, SVG Export Plug-In . SVG Version: 6.00 Build 0)  -->
<!DOCTYPE svg PUBLIC "-//W3C//DTD SVG 1.1//EN" "http://www.w3.org/Graphics/SVG/1.1/DTD/svg11.dtd">
<svg version="1.1" id="Layer_1" xmlns="http://www.w3.org/2000/svg" xmlns:xlink="http://www.w3.org/1999/xlink" x="0px" y="0px"
	 width="87.299px" height="31.872px" viewBox="0 0 87.299 31.872" style="enable-background:new 0 0 87.299 31.872;"
	 xml:space="preserve">
<path d="M13.808,16.919l-2.021,0.842h-0.673l-2.021-0.842c0,0-0.674,0.758,0,2.105l2.021-0.59h0.673l2.021,0.59
	C14.481,17.677,13.808,16.919,13.808,16.919z"/>
<path d="M22.53,31.872l0.371-13.035c0,0-3.184-1.578-7.41-2.31c-1.345,3.019-4.04,11.102-4.04,11.102s-3.368-8.083-4.715-10.976
	C2.849,17.427,0,18.845,0,18.845l0.372,13.027H22.53z"/>
<path d="M17.04,11.613c2.963-2.964,2.963-7.787,0-10.751c-0.189-0.188-0.522-0.188-0.711,0l-0.68,0.68
	C14.563,0.583,13.14,0,11.582,0C8.188,0,5.427,2.76,5.427,6.154c0,1.559,0.583,2.982,1.542,4.067l-0.68,0.681
	c-0.197,0.196-0.197,0.515,0,0.711c1.296,1.297,2.979,2.065,4.788,2.203v0.644H8.729c-0.278,0-0.504,0.225-0.504,0.503
	c0,0.277,0.226,0.502,0.504,0.502h5.703c0.279,0,0.504-0.226,0.504-0.502c0-0.278-0.226-0.503-0.504-0.503h-2.348v-0.632
	C13.956,13.726,15.703,12.949,17.04,11.613z M7.37,11.244l0.323-0.324c1.06,0.867,2.415,1.388,3.889,1.388
	c3.392,0,6.153-2.761,6.153-6.154c0-1.473-0.521-2.827-1.387-3.887l0.322-0.325c2.225,2.589,2.111,6.507-0.341,8.96
	C13.877,13.354,9.958,13.468,7.37,11.244z"/>
<g>
	<path d="M38.144,12.919h-1.726l-1.341-3.391l-1.141-3.406L32.811,9.56l-1.31,3.36h-1.726l-3.96-10.788h2.281l2.543,7.783
		l2.62-7.783h1.325l2.697,7.783l2.466-7.783h2.281L38.144,12.919z"/>
	<path d="M51.319,12.919h-8.076c0-3.591,0-7.197,0-10.788h8.076v1.973h-6.057v2.481h5.841v1.896h-5.841v2.435h6.057V12.919z"/>
	<path d="M62.66,4.736c-0.37-0.616-1.388-1.202-2.559-1.202c-1.51,0-2.234,0.632-2.234,1.434c0,0.94,1.109,1.202,2.404,1.356
		c2.25,0.277,4.346,0.863,4.346,3.437c0,2.404-2.127,3.437-4.531,3.437c-2.203,0-3.898-0.678-4.7-2.651l1.695-0.878
		c0.478,1.187,1.726,1.711,3.036,1.711c1.279,0,2.481-0.447,2.481-1.618c0-1.017-1.063-1.434-2.497-1.587
		c-2.204-0.262-4.238-0.848-4.238-3.268c0-2.219,2.188-3.128,4.177-3.144c1.68,0,3.421,0.478,4.238,2.142L62.66,4.736z"/>
	<path d="M76.791,7.587c-0.031,2.79-1.741,5.579-5.533,5.579c-3.791,0-5.548-2.728-5.548-5.563c0-2.836,1.818-5.687,5.548-5.687
		C74.972,1.916,76.821,4.767,76.791,7.587z M67.713,7.633c0.046,1.772,1.001,3.668,3.544,3.668s3.499-1.911,3.529-3.683
		c0.031-1.819-0.986-3.853-3.529-3.853S67.667,5.815,67.713,7.633z"/>
	<path style="fill:#383234;" d="M36.001,30.055c-1.11,1.095-2.543,1.603-4.1,1.603c-4.007,0-5.702-2.758-5.718-5.562
		c-0.015-2.82,1.819-5.688,5.718-5.688c1.464,0,2.851,0.555,3.961,1.649l-1.356,1.31c-0.709-0.693-1.665-1.018-2.604-1.018
		c-2.604,0-3.729,1.942-3.714,3.746c0.016,1.787,1.048,3.652,3.714,3.652c0.94,0,2.003-0.386,2.712-1.095L36.001,30.055z"/>
	<path style="fill:#383234;" d="M39.021,20.623v8.907h5.548v1.881h-7.583V20.623H39.021z"/>
	<path style="fill:#383234;" d="M53.661,29.377H48.02l-0.925,2.034h-2.204l4.839-10.788h2.22l4.839,10.788H54.57L53.661,29.377z
		 M50.84,22.889l-2.004,4.593h4.007L50.84,22.889z"/>
	<path style="fill:#383234;" d="M64.201,23.228c-0.37-0.616-1.388-1.202-2.559-1.202c-1.51,0-2.234,0.632-2.234,1.434
		c0,0.94,1.109,1.202,2.404,1.356c2.25,0.277,4.346,0.863,4.346,3.437c0,2.403-2.127,3.437-4.531,3.437
		c-2.203,0-3.898-0.678-4.7-2.65l1.695-0.879c0.478,1.188,1.726,1.711,3.036,1.711c1.279,0,2.481-0.447,2.481-1.618
		c0-1.017-1.063-1.434-2.497-1.587c-2.204-0.263-4.238-0.848-4.238-3.268c0-2.22,2.188-3.129,4.177-3.145
		c1.68,0,3.421,0.479,4.238,2.143L64.201,23.228z"/>
	<path style="fill:#383234;" d="M74.386,23.228c-0.37-0.616-1.388-1.202-2.559-1.202c-1.51,0-2.234,0.632-2.234,1.434
		c0,0.94,1.109,1.202,2.404,1.356c2.25,0.277,4.346,0.863,4.346,3.437c0,2.403-2.127,3.437-4.531,3.437
		c-2.203,0-3.898-0.678-4.7-2.65l1.695-0.879c0.478,1.188,1.726,1.711,3.036,1.711c1.279,0,2.481-0.447,2.481-1.618
		c0-1.017-1.063-1.434-2.497-1.587c-2.204-0.263-4.238-0.848-4.238-3.268c0-2.22,2.188-3.129,4.177-3.145
		c1.68,0,3.421,0.479,4.238,2.143L74.386,23.228z"/>
	<path d="M81.983,25.077l2.866-4.454h2.45v0.093L83,26.957v4.454h-2.034v-4.454l-4.146-6.241v-0.093h2.42L81.983,25.077z"/>
</g>
</svg>
