<?xml version="1.0" encoding="iso-8859-1"?>
<!-- Generator: Adobe Illustrator 16.0.0, SVG Export Plug-In . SVG Version: 6.00 Build 0)  -->
<!DOCTYPE svg PUBLIC "-//W3C//DTD SVG 1.1//EN" "http://www.w3.org/Graphics/SVG/1.1/DTD/svg11.dtd">
<svg version="1.1" id="Layer_1" xmlns="http://www.w3.org/2000/svg" xmlns:xlink="http://www.w3.org/1999/xlink" x="0px" y="0px"
	 width="469.282px" height="265.38px" viewBox="0 0 469.282 265.38" style="enable-background:new 0 0 469.282 265.38;"
	 xml:space="preserve">
<g id="PNlFL8.tif">
	<g>
		<path style="fill-rule:evenodd;clip-rule:evenodd;fill:#1A1A1A;" d="M265.211,95.232c18.218-24.548,40.393-44.395,68.375-57.257
			c8.424-3.872,16.738-8.042,25.676-10.693c0.305,1.453,0.801,2.897,0.861,4.36c0.059,1.431-0.318,2.751-2.373,1.723
			c-3.988-1.996-4.572-0.523-3.008,3.053c0.383,0.876,0.23,1.918-0.926,1.588c-2.969-0.847-2.162,1.289-2.592,2.77
			c-0.771,2.647-1.297,5.699-2.992,7.654c-1.91,2.202-1.805-2.75-4.002-2.027c-0.758,0.249-1.783-0.167-2.457,0.174
			c-4.248,2.151-10.137-0.657-13.52,4.658c-0.518,0.814-2.258,1.168-3.248,2.761c-1.764,2.836-5.018,4.727-6.891,7.521
			c-2.135,3.184-8.844,3.641-6.092,9.884c0.479,1.087-0.424,1.917-1.619,1.916c-1.203-0.001-2.74,0.582-2.684-1.754
			c0.076-3.255-1.238-2.321-2.758-0.777c-3.043,3.092-4.523,6.954-5.277,11.398c-3.857-4.016-5.832-3.679-7.479,0.817
			c-0.961,2.622-2.094,5.193-2.877,7.867c-0.924,3.156-2.327,2.047-3.848,0.501c-0.611,2.072,0.357,4.179-0.906,5.999
			c-2.83,4.077-5.364,8.39-8.496,12.217c-2.981,3.643-2.17,9.318-6.923,12.065c-0.726,0.419,0.888,3.5,2.536,3.229
			c2.453-0.402,5.549,0.195,7.147-2.67c0.857-1.539,2.451-2.493,3.681-1.438c2.802,2.403,6.132,1.054,9.089,1.907
			c4.742,1.369,2.602-3.303,3.684-4.799c1.633-2.257-2.344,0.495-2.547-1.375c3.666-3.148,3.504-3.037,0.713-6.37
			c-1.176-1.405,2.641-3.249,0.275-5.158c0.465-0.441,0.859-1.032,1.41-1.283c0.592-0.269,1.627-0.201,1.697,0.509
			c0.373,3.699,6.531,5.863,2.807,10.653c-0.52,0.669-0.391,1.736,0.459,2.179c1.102,0.575,1.873-0.089,2.381-1.088
			c1.01-1.981,2.021-3.961,3.201-6.272c1.051,2.836,0.482,5.345,0.559,7.789c0.039,1.194,1.723,2.636,0.008,3.561
			c-2.047,1.104-1.545-2.294-3.668-2.133c0.693,2.196-5.637,4.538-0.262,6.139c3.816,1.137,8.059,6.003,12.672,1.104
			c0.482-0.512,1.859-0.912,1.893,0.37c0.082,3.094,1.727,1.497,2.965,1.159c5.467-1.493,10.781-0.77,15.961,1.213
			c2.807,1.074,9.297-0.346,10.48-2.475l-0.012,0.013c1.891-0.556,4.131-0.656,5.59-1.774c2.037-1.562,4.807-1.982,5.975-0.896
			c3.074,2.862,5.492,2.96,9.137,1.042c1.379-0.727,3.377,0.533,5.123-1.87c1.848-2.546,0.045-4.124-0.611-6.973
			c3.863,0.906,5.912,7.877,10.078,2.472c5.871,3.051,10.711-5.129,16.652-1.552c0.133,0.08,0.738-0.241,0.764-0.426
			c0.477-3.33,6.242-2.746,5.164-7.991c-0.551-2.676,3.51-2.505,5.777-1.096c0.805,0.5,0.854,2.502,2.406,0.917
			c0.889-0.907,2.406-1.676,1.637-3.265c-1.08-2.229-0.383-3.335,1.842-4.04c1-0.316,1.65-1.398,1.273-2.422
			c-1.863-5.049,3.133-8.396,3.244-13.007c0.014-0.601,0.568-3.449,3.291-2.63c1.896,0.57,1.873-1.193,1.164-2.147
			c-2.33-3.137-0.666-4.492,2.182-5.309c2.752-0.79,3.334-1.604,0.414-3.145c-3.586-1.892-1.301-3.302,0.549-4.568
			c0.922-0.63,2.176-0.337,3.158-1.238c2.984-2.74,7.91-2.896,10.979-0.237c5.275,4.573,10.07,9.536,13.355,15.877
			c1.885,3.637,4.52,6.886,6.816,10.309c0.062,0.952,0.125,1.904,0.188,2.856c0.627,2.368-1.197,5.375,1.857,7.107
			c-0.395,5.014,1.527,9.891,0.881,14.92c-0.98,0.214-1.865,0.541-1.717,1.807c0.117,0.988,0.93,1.16,1.699,1.361
			c0.004,0.944,0.01,1.889,0.016,2.832c-0.986,0.224-1.891,0.547-1.709,1.834c0.143,1.002,0.977,1.133,1.764,1.295
			c-0.025,6.953-0.049,13.908-0.074,20.861c-1.48,0.166-2.188,1.059-2.873,2.373c-1.711,3.281-2.455,6.795-2.984,10.376
			c-0.205,1.396-0.395,2.803-1.982,3.078c-5.047,0.878-8.02,4.515-10.318,8.432c-1.6,2.729-3.365,4.946-5.486,7.263
			c-1.867,2.038-5.227,1.757-5.977,4.523c-1.229,4.54-5.518,4.629-8.467,4.717c-3.814,0.114-7.564-1.488-8.92-6.409
			c-1.08-3.917-0.311-9.016-6.123-11.094c4.256-1.742,4.695-2.734,1.043-5.375c-2.787-2.015-4.883-2.695-8.186-2.381
			c-1.471,0.141-5.213,0.728-5.383-2.46c-0.414-7.729-1.547-9.044-9.42-9.066c-1.105-0.004-1.793-0.823-2.693-1.104
			c-4.398-1.367-8.203-4.295-13.275,0.511c-2.645,2.505-8.277,3.752-13.084,3.058c-12.75-1.844-24.943-5.816-37.178-9.641
			c-9.949-3.109-19.795-6.652-29.898-9.143c-6.406-1.578-12.391-4.797-19.18-4.961c-1.313-0.031-2.332-0.391-2.436,1.33
			c-0.081,1.347-0.329,2.793,1.972,2.26c1.542-0.357,2.508,0.618,2.918,2.074c0.482,1.711,1.9,2.765,3.32,2.354
			c2.336-0.675,3.709,0.662,5.488,1.482c2.372,1.092,5.36,1.135,6.247,4.328c4.344-1.307,5.424,3.266,8.264,4.539
			c4.467,2.004,7.031,7.416,12.762,7.035l-0.018-0.019c0.184,5.928,6.889,4.272,9.348,7.877c0.744,1.093,3.357,2.957,5.771,1.965
			c2.459-1.012,2.982,0.196,2.867,2.265c-0.082,1.458,0.629,2.431,1.561,3.486c1.51,1.713,3.09,3.464,0.875,5.984
			c-0.826,0.941-0.322,2.587,1.445,1.89c2.209-0.871,3.479,0.439,4.91,1.506c1.576,1.174,2.807,3.017,5.012,2.985
			c2.895-0.041,4.219,1.112,4.299,4.131c0.059,2.26,1.246,3.526,3.59,1.797c1.229-0.907,2.566-1.208,3.523,0.106
			c1.316,1.81-0.77,2.218-1.625,2.924c-2.43,2.007-0.803,3.619,0.518,5.002c2.15,2.255,2.572,0.338,3.061-1.448
			c0.52-1.896,1.799-0.739,2.824-0.574c4.375,0.704,4.291,4.396,4.658,7.82c1.963-1.107,1.17-2.62,1.414-3.812
			c0.184-0.895,0.504-1.624,1.488-1.684c0.895-0.055,1.975,0.455,1.953,1.213c-0.105,3.469,3.1,4.714,4.465,7.137
			c2.072,3.676,4.619,4.67,8.977,4.32c2.688-0.216,7.088-0.938,8.824,2.375c1.52,2.9,3.625,4.129,6.402,4.928
			c2.5,0.719,5.092,1.07,5.498,4.605c0.137,1.199,2.139,3.32,3.121,2.661c3.85-2.578,5.338,1.239,7.451,2.551
			c2.578,1.601,5.109,4.347,7.383,5.436c5.246,2.515,11.615,1.886,17.498,1.33c4.213-0.397,9.527,0.957,9.705,3.824
			c0.223,3.572,1.842,6.952,1.279,10.589c-0.07,0.151-0.146,0.438-0.209,0.436c-7.078-0.335-7.959,4.809-9.266,10.002
			c-1.629,6.486-3.35,6.969-10.076,5.939c-31.484-4.814-59.15-19.081-86.361-34.522c-8.645-4.905-17.416-9.614-25.828-14.895
			c-19.486-12.233-37.783-26.112-55.25-41.082c-0.857-0.734-1.355-1.462-2.912-1.094c-13.65,3.232-27.408,4.354-41.287,1.419
			c0.299-2.294-0.174-3.74-2.657-4.985c-7.393-3.707-14.565-0.553-21.806,0.113c-1.229,0.112-1.371,1.69-1.499,2.854
			c-1.25,0.907-2.501,1.814-3.751,2.722c-1.489,0.093-3.648-0.469-2.317,2.375c-0.059,0.216-0.192,0.365-0.4,0.447
			c-0.822-0.302-1.644-0.604-2.465-0.907l-0.004-0.004c-0.074-1.399,0.458-2.197,1.659-3.197c4.521-3.769,7.396-8.218,5.016-14.605
			c-1.267-3.398,2.656-7.738-1.699-10.756c3.625-2.141,1.435-5.633,1.973-8.49c0.014-3.105-0.179-6.229,0.097-9.312
			c0.304-3.403-1.451-3.802-4.144-3.575c-1.613,0.135-2.53,1.438-3.899,1.93c-0.698-1.023-1.365-0.994-2,0.061
			c-0.964,0.023-1.928,0.049-2.893,0.072c-4.138,0.15-8.267,0.356-12.149,2.035c-0.611,0.002-1.222,0.004-1.833,0.006
			c-2.925-0.334-5.608,0.396-8.126,1.85c-0.63,0.041-1.261,0.081-1.891,0.121c-2.414,0.301-4.973,0.195-7.209,0.994
			c-3.639,1.299-8.558-0.831-10.912,3.943c-0.825-0.04-1.559,0.113-1.979,0.934c-6.173-0.45-11.998,1.338-17.583,3.461
			c-5.207,1.979-9.41,7.88-15.955,3.229c-0.606-0.432-1.135,0.131-1.393,0.88c-1.311,3.81-4.43,3.114-7.322,2.829
			c-3.258-0.322-7.435-1.895-9.306,1.113c-1.853,2.979-4.577,4.754-6.917,6.746c-2.149,1.83-4.91,6.563-9.216,1.469
			c-2.115-2.502-4.771,0.922-6.191,2.21c-2.164,1.961,0.941,1.707,1.895,2.345c0.244,0.163,0.554,0.542,0.515,0.766
			c-0.944,5.447,3.285,9.521,3.866,14.585c0.186,1.624,1.27,3.391-0.066,4.694c-1.658,1.617-2.847-0.44-4.284-0.995
			c-1.393-0.537-3.48-2.356-4.331-0.534c-0.468,1.004-1.575,3.816,0.715,5.163c1.104,0.649,1.73,1.289,0.211,1.952
			c-2.233,0.976-1.493,2.495-1.166,4.161c0.477,2.426,1.395,4.849,0.963,7.749c-2.597-2.667-2.78-2.885-5.15-0.895
			c-2.617,2.197-5.683,3.818-6.709,7.883c-0.557,2.207-2.671,6.102-3.682,6.516c-5.537,2.269-6.866,10.075-13.838,10.129
			c-0.833,0.007-2.871,1.304-0.346,2.467c0.839,0.387,2.275,0.232,1.671,1.738c-0.516,1.287-1.698,1.343-2.966,1.017
			c-3.637-0.935-4.509,0.573-3.515,3.925c0.321,1.084,0.144,2.315,0.194,3.479c0.007,0.938,0.013,1.877,0.02,2.815
			c0.35,2.117-3.266,2.255-2.555,4.771c2.104-0.28,3.67-0.943,4.459-2.817c0.667-0.005,1.333-0.009,1.999-0.014
			c1.948,6.958,0.322,9.225-6.696,9.405c-0.601,0.016-1.437,0.117-1.732,0.506c-0.415,0.546,0.14,1.697,0.589,1.567
			c5.463-1.58,7.775,2.788,10.901,5.619c0.105,1.217,0.21,2.434,0.316,3.65c-2.445,0.804-4.965,0.561-7.428,0.31
			c-5.772-0.59-9.029-3.516-10.18-9.087c-4.14-20.035-7.262-40.235-9.848-60.525c-2.144-16.818-4.82-33.526-5.185-50.586
			c-0.558-26.072,3.301-51.25,11.164-76.08c6.412-20.249,12.921-40.493,18.129-61.113c1.58-6.255,2.415-6.638,8.676-5.267
			c2.76,0.604,5.494,1.326,8.24,1.995c0.59,1.708,1.407,3.379,1.689,5.137c0.179,1.114,0.295,1.4,1.397,1.139
			c5.905-1.397,11.279,1.88,17.055,2.219c1.996,0.117,6.752,2.152,6.379,5.671c-0.626,5.91,4.059,9.766,3.792,15.565
			c2.241-1.154,3.301-3.35,5.026-2.324c1.517,0.902-0.19,1.832-0.681,2.776c-0.571,1.1,0.459,0.766,1.041,0.846
			c1.45,0.199,2.848,0.262,4.349,0.119c1.987-0.19,3.117,1.686,4.275,3.067c0.678,0.808,0.108,1.638-0.62,2.093
			c-3.279,2.05-2.082,6.441-1.489,7.784c1.319,2.991,1.401,6.25,2.373,9.071c1.891,0.051,2.195-3.11,3.93-1.54
			c1.116,1.011,0.662,2.806-0.162,4.18c-0.642,1.07-1.938,2.017-0.616,3.428c1.127,0.116,1.486-0.757,1.734-1.483
			c1.39-4.069,2.581-3.685,4.23-0.067c0.615,1.349,1.433,3.145,3.559,3.062c3.676-0.144,3.892,2.318,3.774,5.026
			c-1.006,0.14-1.992,0.368-1.782,1.695c0.049,0.309,0.712,0.83,0.899,0.757c1.172-0.456,0.748-1.574,0.868-2.467
			c4.023,1.801,9.994-0.524,12.021,5.643c0.051,0.155,1.255,0.075,1.848-0.118c2.662-0.869,3.311-0.084,2.672,2.629
			c-0.542,2.3,0.579,3.185,2.794,1.959c1.019-0.563,2.826-1.414,2.363,0.422c-1.065,4.222,1.603,3.555,3.801,3.441
			c2.34-0.121,4.188,2.498,4.105,2.952c-1.003,5.438,4.025,5.185,6.395,7.437c1.35,1.284,3.471,1.013,4.257,2.187
			c4.258,6.358,10.902,8.5,17.492,11.242c2.364,0.983,6.06,0.843,7.268,4.219c-0.933,0.889-1.561,1.805-0.016,3.252
			c0-1.327,0-2.296,0-3.266c5.628-1.007,10.029,2.783,15.12,3.873c4.816,3.498,4.817,3.499,5.913-2.727
			c0.058-0.326,0.066-0.66,0.097-0.99c1.157,0.697,0.803,1.884,0.941,2.91c-0.193,10.646-2.301,21.291-0.026,31.939
			c-1.707,2.766-1.927,6.123-0.116,8.316c1.658,2.009,4.686,0.308,7.012-0.471c1.93-0.645,3.765-1.08,5.828-0.469
			c5.349,1.584,10.473-1.318,15.809-0.91c6.11,0.468,12.036-3.952,18.263-0.652c0.619-2.442-2.103-4.691,0.102-7.498
			c2.884,3.445,5.547,6.404,10.293,7.782c4.015,1.165,8.967-0.565,12.325,4.144c1.307-5.565,2.81-10.283,2.321-15.34
			c-0.146-7.695,2.148-15.37,0.213-23.083C268.63,109.751,266.215,102.529,265.211,95.232z M11.314,111.409
			c-2.386,0.338-3.722,2.455-4.579,4.021c-1.32,2.412-3.396,5.61,0.447,8.044c0.03,0.649,0.061,1.298,0.091,1.946
			c-0.764,3.898,2.44,6.887,2.152,10.904c-0.8,11.168,7.38,17.647,14.037,24.789c0.498,0.533,1.929,0.129,2.898,0.31
			c1.282,0.239,2.852,0.252,3.747,1.011c3.745,3.177,7.82,4.032,12.769,4.409c4.265,0.324,2.896-1.972,4.058-3.637
			c1.151-1.65,5.96,1.102,6.045-2.845c0.08-3.741,2.328-4.852,5.015-5.888c-1.595-2.659-6.867-1.126-5.625-5.925
			c0.639-0.035,1.277-0.07,1.915-0.105c0.229,1.032,0.105,2.857,1.8,2.037c5.84-2.829,11.959-4.75,18.241-6.237
			c0.615-0.013,1.229-0.026,1.846-0.035c6.23,4.452,11.051-3.681,16.994-1.942c0.026,0.008,0.197-0.596,0.351-0.887
			c1.351-2.548,3.177-4.391,6.61-4.077c-2.268-1.544-5.45-2.23-6.541-3.476c-5.904-6.742-14.831-7.043-22.002-10.923
			c-3.702-2.003-5.8-5.575-9.634-7.049c-1.786-0.686-1.708-2.633-1.661-4.344c0.056-2.033,0.013-4.068,0.013-6.226
			c-2.6,0.796-2.833,2.696-3.39,4.206c-2.522-2.14-4.938-4.109-7.262-6.184c-2.093-1.869-4.078-3.735-0.39-6.163
			c1.363-0.897,1.675-3.446-0.232-3.175c-3.409,0.485-3.912-4.778-7.862-3.122c-0.949,0.398,1.478-1.11,1.199-1.807
			c-4.992-2.752-8.814,1.771-13.471,1.455c-5.009-0.34-7.557,2.809-7.471,8.022C16.167,101.336,12.925,105.733,11.314,111.409z
			 M408.494,249.843c1.172,2.064,2.816,1.344,3.848,2.092c4.086,2.967,8.299-0.769,12.525,0.189
			c1.475,0.334,1.965-2.114,0.906-2.913c-2.045-1.543-5.062-3.342-7.133-2.1C415.514,248.988,412.229,249.227,408.494,249.843z
			 M51.745,170.053c1.954-0.047,1.896-1.841,1.975-2.858c0.227-2.927-2.563-1.794-3.922-2.251c-1.635-0.55-1.421,1.239-1.458,2.308
			C48.258,169.643,50.454,169.303,51.745,170.053z M346.795,38.854c-1.199-0.089-1.416,0.664-1.428,1.527
			c-0.014,1.109,0.447,1.879,1.67,1.938c0.836,0.04,1.822-0.035,1.793-1.079C348.795,40.003,347.801,39.312,346.795,38.854z
			 M72.293,24.689c-3.103-2.152-3.103-2.152-6.489-0.554C68.457,24.006,69.728,25.907,72.293,24.689z M69.698,149.801
			c0.269-0.777-0.145-1.088-0.589-1.134c-0.396-0.042-1.042,0.082-1.192,0.35c-0.378,0.676,0.034,1.171,0.761,1.182
			C69.063,150.205,69.453,149.904,69.698,149.801z M75.369,121.726c-0.307,0.23-0.662,0.364-0.697,0.557
			c-0.042,0.225,0.195,0.502,0.312,0.756c0.293-0.23,0.587-0.461,0.88-0.691C75.7,122.14,75.535,121.933,75.369,121.726z
			 M286.822,126.105c-0.162,0.277-0.412,0.521-0.419,0.771c-0.007,0.254,0.228,0.516,0.356,0.774c0.15-0.243,0.408-0.481,0.42-0.731
			C287.191,126.666,286.961,126.4,286.822,126.105z M98.004,147.023c0.142,0.049,0.285,0.134,0.425,0.128
			c0.048-0.002,0.088-0.228,0.132-0.351c-0.142-0.05-0.285-0.135-0.425-0.129C98.087,146.673,98.048,146.899,98.004,147.023z"/>
		<path style="fill-rule:evenodd;clip-rule:evenodd;fill:#313131;" d="M346.297,126.4c-1.184,2.129-7.674,3.549-10.48,2.475
			c-5.18-1.982-10.494-2.706-15.961-1.213c-1.238,0.338-2.883,1.935-2.965-1.159c-0.033-1.282-1.41-0.882-1.893-0.37
			c-4.613,4.899-8.855,0.033-12.672-1.104c-5.375-1.602,0.955-3.943,0.262-6.139c2.123-0.161,1.621,3.237,3.668,2.133
			c1.715-0.925,0.031-2.367-0.008-3.561c-0.076-2.443,0.492-4.953-0.559-7.789c-1.18,2.311-2.191,4.292-3.201,6.272
			c-0.508,0.999-1.279,1.663-2.381,1.088c-0.85-0.443-0.979-1.51-0.459-2.179c3.725-4.79-2.434-6.954-2.807-10.653
			c-0.07-0.71-1.105-0.778-1.697-0.509c-0.551,0.251-0.945,0.842-1.41,1.283c2.365,1.909-1.451,3.753-0.275,5.158
			c2.791,3.333,2.953,3.222-0.713,6.37c0.203,1.87,4.18-0.882,2.547,1.375c-1.082,1.497,1.059,6.168-3.684,4.799
			c-2.957-0.854-6.288,0.496-9.089-1.907c-1.229-1.055-2.823-0.101-3.681,1.438c-1.598,2.865-4.694,2.268-7.147,2.67
			c-1.648,0.271-3.262-2.811-2.536-3.229c4.753-2.747,3.942-8.422,6.923-12.065c3.132-3.827,5.666-8.14,8.496-12.217
			c1.264-1.82,0.295-3.927,0.906-5.999c1.521,1.546,2.924,2.655,3.848-0.501c0.783-2.673,1.916-5.245,2.877-7.867
			c1.646-4.496,3.621-4.833,7.479-0.817c0.754-4.444,2.234-8.306,5.277-11.398c1.52-1.544,2.834-2.478,2.758,0.777
			c-0.057,2.336,1.48,1.753,2.684,1.754c1.195,0.001,2.098-0.829,1.619-1.916c-2.752-6.243,3.957-6.7,6.092-9.884
			c1.873-2.793,5.127-4.684,6.891-7.521c0.99-1.592,2.73-1.947,3.248-2.761c3.383-5.314,9.271-2.506,13.52-4.658
			c0.674-0.341,1.699,0.075,2.457-0.174c2.197-0.722,2.092,4.229,4.002,2.027c1.695-1.955,2.221-5.007,2.992-7.654
			c0.43-1.481-0.377-3.617,2.592-2.77c1.156,0.33,1.309-0.711,0.926-1.588c-1.564-3.576-0.98-5.048,3.008-3.053
			c2.055,1.028,2.432-0.292,2.373-1.723c-0.061-1.462-0.557-2.907-0.861-4.36c6.258-3.348,13.355-4.581,19.725-7.309
			c10.721-4.592,22.037-6.62,33.039-9.929c9.971-3,20.002-5.812,30.064-8.487c4.219-1.121,8.701-2.491,12.299,1.683
			c-2.246,1.447-2.035,5.551-5.824,5.389c-0.229-0.01-0.781,0.807-0.691,1.066c1.723,4.895-1.955,9.112-1.707,13.849
			c0.086,1.651-1.375,2.58-2.543,0.883c-0.994-1.442-1.646-2.554-3.398-1.279c-1.465,1.064-2.135,2.352-1.479,4.305
			c0.461,1.374,0.609,2.948,0.488,4.398c-0.168,2.022,1.248,5.098-0.992,5.825c-2.396,0.78-1.373-2.794-2.656-3.928
			c-0.248-0.219-0.535-0.396-0.807-0.586c-1.322-0.921-2.473-2.387-4.396-1.179c-1.77,1.11-1.176,2.126-0.326,3.614
			c0.742,1.299-0.41,2.145-1.572,3.096c-1.264,1.034-2.996,3.269-0.279,4.462c3.312,1.455,6.471,4.319,10.654,2.448
			c0.277-0.124,1.291,0.619,1.439,1.116c1.006,3.349,3.76,5.759,4,9.852c0.105,1.768,0.006,5.495,2.574,7.701
			c4.908,4.219,8.943,9.472,10.857,15.615c1.332,4.273,6.381,7.218,4.514,12.556c-2.297-3.424-4.932-6.672-6.816-10.31
			c-3.285-6.341-8.08-11.304-13.355-15.877c-3.068-2.658-7.994-2.502-10.979,0.237c-0.982,0.9-2.236,0.607-3.158,1.238
			c-1.85,1.266-4.135,2.676-0.549,4.568c2.92,1.542,2.338,2.355-0.414,3.145c-2.848,0.817-4.512,2.172-2.182,5.309
			c0.709,0.954,0.732,2.718-1.164,2.147c-2.723-0.819-3.277,2.029-3.291,2.63c-0.111,4.611-5.107,7.958-3.244,13.007
			c0.377,1.024-0.273,2.106-1.273,2.422c-2.225,0.705-2.922,1.812-1.842,4.04c0.77,1.589-0.748,2.358-1.637,3.265
			c-1.553,1.584-1.602-0.417-2.406-0.917c-2.268-1.409-6.328-1.58-5.777,1.096c1.078,5.245-4.688,4.661-5.164,7.991
			c-0.025,0.185-0.631,0.505-0.764,0.426c-5.941-3.578-10.781,4.603-16.652,1.552c-4.166,5.405-6.215-1.566-10.078-2.472
			c0.656,2.849,2.459,4.427,0.611,6.973c-1.746,2.403-3.744,1.144-5.123,1.87c-3.645,1.918-6.062,1.82-9.137-1.042
			c-1.168-1.087-3.938-0.666-5.975,0.896c-1.459,1.118-3.699,1.219-5.59,1.773c-0.137-0.077-0.275-0.154-0.412-0.232
			C346.014,126.253,346.156,126.327,346.297,126.4z M437.189,27.856c-0.41-0.472-0.789-1.083-0.924-1.033
			c-0.537,0.199-1.174,0.5-1.441,0.958c-0.346,0.592-0.141,1.35,0.756,1.177C436.111,28.855,436.559,28.309,437.189,27.856z
			 M367.016,120.828c-0.121,0.279-0.242,0.557-0.361,0.836c0.279,0.119,0.619,0.393,0.82,0.314c0.199-0.078,0.258-0.514,0.379-0.791
			C367.574,121.066,367.297,120.947,367.016,120.828z"/>
		<path style="fill-rule:evenodd;clip-rule:evenodd;fill:#313131;" d="M313.299,155.416c-5.73,0.381-8.295-5.031-12.762-7.035
			c-2.84-1.273-3.92-5.846-8.264-4.539c-0.887-3.193-3.875-3.236-6.247-4.328c-1.779-0.82-3.152-2.157-5.488-1.482
			c-1.42,0.411-2.838-0.643-3.32-2.354c-0.41-1.456-1.376-2.432-2.918-2.074c-2.301,0.533-2.053-0.913-1.972-2.26
			c0.104-1.721,1.123-1.361,2.436-1.33c6.789,0.164,12.774,3.383,19.18,4.961c10.104,2.49,19.949,6.033,29.898,9.143
			c12.234,3.824,24.428,7.797,37.178,9.641c4.807,0.694,10.439-0.553,13.084-3.058c5.072-4.806,8.877-1.878,13.275-0.511
			c0.9,0.28,1.588,1.1,2.693,1.104c7.873,0.022,9.006,1.338,9.42,9.066c0.17,3.188,3.912,2.601,5.383,2.46
			c3.303-0.314,5.398,0.366,8.186,2.381c3.652,2.641,3.213,3.633-1.043,5.375c5.812,2.078,5.043,7.177,6.123,11.094
			c1.355,4.921,5.105,6.523,8.92,6.409c2.949-0.088,7.238-0.177,8.467-4.717c0.75-2.767,4.109-2.485,5.977-4.523
			c2.121-2.316,3.887-4.534,5.486-7.263c2.299-3.917,5.271-7.554,10.318-8.432c1.588-0.275,1.777-1.683,1.982-3.078
			c0.529-3.581,1.273-7.095,2.984-10.376c0.686-1.314,1.393-2.207,2.873-2.372c-0.033,7.031-1.398,13.747-6.119,19.16
			c-2.838,3.254-7.814,4.927-6.949,10.617c0.064,0.428-0.758,0.985-1.16,1.488c-3.062,3.82-6.25,7.549-9.113,11.514
			c-0.959,1.327-1.965,3.12-0.412,5.008c1.496,1.82,0.643,2.677-1.359,3.584c-3.004,1.361-3.334,4.829-0.971,7.197
			c0.619,0.621,0.861,1.208,0.891,2.141c0.127,3.86,2.086,6.513,5.635,8.086c1.176,0.521,3.223,1.556,3.139,2.062
			c-0.914,5.43,2.963,1.89,4.506,2.449c1.189,2.883-2.088,5.069-1.355,7.409c1.961,6.251,2.543,12.591,2.451,19.06
			c-0.984,0.498-1.969,0.996-2.953,1.493c0.562-3.637-1.057-7.017-1.279-10.589c-0.178-2.867-5.492-4.222-9.705-3.824
			c-5.883,0.556-12.252,1.185-17.498-1.33c-2.273-1.089-4.805-3.835-7.383-5.436c-2.113-1.312-3.602-5.129-7.451-2.551
			c-0.982,0.659-2.984-1.462-3.121-2.661c-0.406-3.535-2.998-3.887-5.498-4.605c-2.777-0.799-4.883-2.027-6.402-4.928
			c-1.736-3.312-6.137-2.591-8.824-2.375c-4.357,0.35-6.904-0.645-8.977-4.32c-1.365-2.423-4.57-3.668-4.465-7.137
			c0.021-0.758-1.059-1.268-1.953-1.213c-0.984,0.06-1.305,0.789-1.488,1.684c-0.244,1.192,0.549,2.705-1.414,3.812
			c-0.367-3.425-0.283-7.116-4.658-7.82c-1.025-0.165-2.305-1.321-2.824,0.574c-0.488,1.786-0.91,3.703-3.061,1.448
			c-1.32-1.383-2.947-2.995-0.518-5.002c0.855-0.706,2.941-1.114,1.625-2.924c-0.957-1.314-2.295-1.014-3.523-0.106
			c-2.344,1.729-3.531,0.463-3.59-1.797c-0.08-3.019-1.404-4.172-4.299-4.131c-2.205,0.031-3.436-1.812-5.012-2.985
			c-1.432-1.066-2.701-2.377-4.91-1.506c-1.768,0.697-2.271-0.948-1.445-1.89c2.215-2.521,0.635-4.271-0.875-5.984
			c-0.932-1.056-1.643-2.028-1.561-3.486c0.115-2.068-0.408-3.276-2.867-2.265c-2.414,0.992-5.027-0.872-5.771-1.965
			c-2.459-3.604-9.164-1.949-9.348-7.877c0.932-0.128,1.961-0.116,2.246-1.304c0.029-0.126-0.363-0.499-0.578-0.515
			C313.646,153.48,313.436,154.427,313.299,155.416z M400.783,170.154c-1.727-0.336,1.529-5.951-3.588-3.286
			c-0.484-1.954-3.416-1.937-3.436-4.17c-0.006-0.818,0.441-1.812-0.584-2.089c-5.799-1.567-10.59-6.736-17.57-4.395
			c-1.984,0.665-4.318,1.229-6.771,1.018c-7.625-0.654-15.066-5.154-22.955-1.257c-0.842,0.415-1.438-0.538-2.111-0.987
			c-1.07-0.712-2.324-0.832-3.078,0.333c-0.672,1.04-0.385,2.22,0.447,3.224c0.727,0.879,2.838,1.348,1.271,3.015
			c-1.137,1.209-3.049,2.295-1.596,4.01c1.279,1.51,3.318,1.804,5.465,1.007c4.189-1.557,8.465,1.766,12.746-0.011
			c0.365-0.15,1.129,0.545,1.654,0.923c4.25,3.063,6.109,9.955,13.34,8.281c0.764-0.176,1.332,0.705,1.096,1.286
			c-1.398,3.415,1.418,3.45,3.27,4.711c3.746,2.552,9.305-1.764,12.189,3.439c0.051,0.09,0.627-0.059,0.93-0.172
			C396.168,183.288,400.896,175.878,400.783,170.154z"/>
		<path style="fill-rule:evenodd;clip-rule:evenodd;fill:#313131;" d="M32.378,259.348c-3.126-2.831-5.438-7.199-10.901-5.619
			c-0.449,0.13-1.003-1.021-0.589-1.567c0.295-0.389,1.132-0.49,1.732-0.506c7.019-0.181,8.644-2.447,6.696-9.403
			c1.496-1.573,3.453-1.723,5.466-1.98c1.724-0.221,3.443-1.29,3.008-3.226c-0.336-1.493-1.833-1.538-3.599-1.845
			c-3.655-0.635-5.737,2.31-8.798,2.293c-0.05-1.164,0.127-2.396-0.194-3.479c-0.994-3.352-0.122-4.859,3.515-3.925
			c1.268,0.326,2.45,0.271,2.966-1.017c0.604-1.506-0.832-1.352-1.671-1.738c-2.525-1.163-0.487-2.46,0.346-2.467
			c6.972-0.054,8.301-7.86,13.838-10.129c1.011-0.414,3.125-4.309,3.682-6.516c1.026-4.064,4.092-5.686,6.709-7.883
			c2.371-1.99,2.553-1.772,5.15,0.895c0.432-2.9-0.486-5.323-0.963-7.749c-0.328-1.666-1.067-3.186,1.166-4.161
			c1.52-0.663,0.893-1.303-0.211-1.952c-2.29-1.347-1.184-4.159-0.715-5.163c0.851-1.822,2.938-0.003,4.331,0.534
			c1.437,0.555,2.625,2.612,4.284,0.995c1.336-1.304,0.252-3.07,0.066-4.694c-0.581-5.064-4.81-9.138-3.866-14.585
			c0.039-0.224-0.271-0.603-0.515-0.766c-0.954-0.638-4.058-0.384-1.895-2.345c1.42-1.288,4.076-4.712,6.191-2.21
			c4.306,5.095,7.066,0.361,9.216-1.469c2.34-1.992,5.064-3.767,6.917-6.746c1.871-3.008,6.048-1.436,9.306-1.113
			c2.892,0.285,6.012,0.98,7.322-2.829c0.257-0.749,0.786-1.312,1.393-0.88c6.545,4.651,10.748-1.249,15.955-3.229
			c5.586-2.123,11.411-3.911,17.583-3.462c0.242,2.497-0.235,4.214-3.395,4.044c-3.505-0.189-6.54,2.159-10.376,1.58
			c-3.414-0.517-6.082,3.787-6.833,5.558c-3.948,9.308-3.796,9.886-10.793,14.562c-0.982,0.657-0.875,1.156-0.663,2.346
			c0.5,2.788-2.064,4.274-4.657,2.87c-2.828-1.532-2.01,0.806-2.28,2.024l-0.021,0.02c-3.726-0.114-3.543,3.231-4.623,5.379
			c-0.282,0.562,0.688,2.092-0.217,2.145c-3.868,0.226-6.839,0.835-4.577,5.784c-5.167,2.35,1.329,2.511,0.879,4.056
			c-1.611,0.77-3.442,0.94-3.692,3.405c-0.182,1.797-1.492,3.416-3.903,2.652c-1.217-0.385-2.367-0.555-2.708,1.089
			c-0.285,1.369,0.392,2.104,1.695,2.584c1.528,0.563,3.081,2.144,1.421,3.238c-3.373,2.227-8.135,2.501-9.544,7.312
			c-6.85,0.405-0.468,4.076-1.429,6.083c-1.128,2.356-6.609,1.929-4.119,6.437c1.311,2.374,1.432,4.471-1.38,5.743
			c-2.591,1.172-1.741,2.13-0.119,3.482c3.381,2.821,6.692,0.729,9.769-0.272c14.752-4.798,29.474-9.705,44.084-14.916
			c5.317-1.896,10.292-4.75,15.429-7.154c3.578-1.675,6.086-5.438,10.012-6.067c3.934-0.63,7.871-2.575,9.987-4.722
			c4.625-4.692,9.778-8.371,15.198-11.85c1.28-0.821,1.482-1.886,1.941-3.171c1.273-3.563,3.273-7.474,7.215-7.754
			c4.293-0.306,1.156-4.432,3.616-5.157c-1.354-2.976,4.553-3.291,2.405-6.563c-0.182-0.276-0.243-0.718-0.488-0.857
			c-4.069-2.306-0.908-4.33,0.571-5.75c1.331-1.278,3.532-3.593,3.061-3.979c-2.707-2.21-0.125-3.521,0.489-5.06
			c0.562-1.41,1.099-2.767,1.023-4.315c-0.134-2.757,1.279-3.968,3.957-3.862c-0.537,2.857,1.653,6.35-1.972,8.49
			c4.355,3.018,0.433,7.357,1.699,10.756c2.38,6.388-0.494,10.837-5.016,14.605c-1.201,1-1.733,1.798-1.659,3.197
			c-0.081,0.143-0.162,0.285-0.242,0.429c0.082-0.142,0.165-0.283,0.247-0.425c0.822,0.303,1.644,0.605,2.465,0.907
			c-20.503,16.031-41.058,32.011-63.784,44.856c-26.762,15.127-55.122,26.751-83.799,37.641c-1.223,0.464-2.545,0.669-3.821,0.994
			c-0.582-2.367,1.464-5.995-1.45-6.915C32.604,254.166,35.245,258.881,32.378,259.348z M50.441,234.539
			c-1.85,2.562-5.042,3.342-6.375,6.555c-0.991,2.388-3.323,3.131-5.699,1.33c-0.856-0.648-1.704-1.324-2.554-0.414
			c-0.621,0.666-1.385,1.949-1.128,2.548c0.929,2.171,3.076,4.934,5.033,3.564c3.566-2.495,6.783-3.52,10.851-2.026
			c0.293,0.107,1.047-0.715,1.428-1.223c3.202-4.268-0.957-4.384-3.375-5.192C49.427,237.833,52.269,237.322,50.441,234.539z"/>
		<path style="fill-rule:evenodd;clip-rule:evenodd;fill:#313131;" d="M107.298,68.413c0.118-2.708-0.099-5.17-3.774-5.026
			c-2.126,0.083-2.944-1.712-3.559-3.062c-1.649-3.618-2.841-4.002-4.23,0.067c-0.248,0.727-0.607,1.599-1.734,1.483
			c-1.322-1.412-0.026-2.358,0.616-3.428c0.824-1.374,1.278-3.169,0.162-4.18c-1.735-1.57-2.039,1.591-3.93,1.54
			c-0.971-2.82-1.053-6.08-2.373-9.071c-0.593-1.343-1.79-5.733,1.489-7.784c0.728-0.455,1.298-1.285,0.62-2.093
			c-1.158-1.381-2.288-3.257-4.275-3.067c-1.501,0.143-2.899,0.08-4.349-0.119c-0.581-0.08-1.612,0.254-1.041-0.846
			c0.491-0.944,2.198-1.874,0.681-2.776c-1.725-1.026-2.785,1.169-5.026,2.324c0.267-5.799-4.418-9.655-3.792-15.565
			c0.373-3.52-4.384-5.554-6.379-5.671c-5.776-0.339-11.15-3.616-17.055-2.219c-1.102,0.261-1.219-0.025-1.397-1.139
			c-0.282-1.758-1.099-3.429-1.689-5.137c10.437,4.042,21.741,5.236,32.036,9.747c-0.025,1.601,0.233,2.954,2.289,3
			c4.354,0.097,6.987,3.204,9.534,6.009c1.574,1.733,3.159,2.048,5.153,1.985l0.037,0.036c1.205,1.264,2.53,2.238,4.356,1.306
			c2.829-1.443,5.042-0.822,6.688,1.866c0.65,1.062,1.591,1.618,2.795,1.893c3.754,0.857,6.264,2.449,4.221,6.939
			c-0.374,0.821-0.053,1.957-0.053,2.872c1.211,0.538,1.482-3.321,2.864-0.471c1.762,3.633,3.226,7.424,7.656,8.733
			c0.507,0.15,1.154,1.013,1.145,1.534c-0.072,3.997,3.583,5.54,5.411,8.249c1.807,2.677,3.828,2.368,4.875-0.872
			c0.357-1.106,0.404-2.667,1.846-2.474c1.471,0.197,2.544,1.479,2.966,2.98c0.814,2.902-0.447,4.655-4.273,5.118
			c2.677,1.858,4.272,3.571,6.821,1.939c1.369-0.877,1.444,0.587,2.06,0.934c4.107,2.308,2.529,5.215,1.535,8.219
			c-0.234,0.709-0.825,1.76,0.327,2.11c4.187,1.275,4.575,7.377,9.685,7.499c1.163,0.028,0.89,1.098,0.696,1.931
			c-0.93,3.983,4.271,5.61,3.68,9.483c-0.002,0.016,0.32,0.146,0.461,0.108c2.817-0.75,3.796,2.234,5.696,2.823
			c2.453,0.76,1.894,4.198,4.463,4.178c3.587-0.027,5.366,2.431,6.855,4.994c0.762,1.312,1.372,2.006,2.915,2.109
			c4.197,0.28,6.155,2.798,6.402,6.845c-5.092-1.088-9.493-4.878-15.122-3.871l0.016,0.013c-1.208-3.375-4.904-3.235-7.268-4.219
			c-6.59-2.742-13.234-4.884-17.492-11.242c-0.786-1.174-2.907-0.903-4.257-2.187c-2.37-2.252-7.398-1.999-6.395-7.437
			c0.083-0.454-1.765-3.072-4.105-2.952c-2.199,0.114-4.866,0.781-3.801-3.441c0.463-1.835-1.344-0.985-2.363-0.422
			c-2.215,1.226-3.335,0.341-2.794-1.959c0.639-2.713-0.01-3.498-2.672-2.629c-0.593,0.193-1.797,0.273-1.848,0.118
			c-2.027-6.167-7.998-3.841-12.021-5.643L107.298,68.413z M145.737,68.75c0.11-0.062,0.279-0.099,0.316-0.19
			c0.044-0.109-0.023-0.264-0.042-0.399c-0.166,0.088-0.331,0.175-0.497,0.263C145.588,68.533,145.663,68.642,145.737,68.75z"/>
		<path style="fill-rule:evenodd;clip-rule:evenodd;fill:#4A4A4A;" d="M454.33,247.092c0.092-6.469-0.49-12.809-2.451-19.06
			c-0.732-2.34,2.545-4.526,1.355-7.409c-1.543-0.56-5.42,2.98-4.506-2.449c0.084-0.507-1.963-1.541-3.139-2.062
			c-3.549-1.573-5.508-4.226-5.635-8.086c-0.029-0.933-0.271-1.52-0.891-2.141c-2.363-2.368-2.033-5.836,0.971-7.197
			c2.002-0.907,2.855-1.764,1.359-3.584c-1.553-1.888-0.547-3.681,0.412-5.008c2.863-3.965,6.051-7.693,9.113-11.514
			c0.402-0.503,1.225-1.061,1.16-1.488c-0.865-5.69,4.111-7.363,6.949-10.617c4.721-5.413,6.086-12.129,6.119-19.16
			c0.025-6.954,0.049-13.909,0.076-20.862c-0.02-1.043-0.037-2.086-0.057-3.129c-0.006-0.943-0.012-1.888-0.016-2.832
			c0.008-1.057,0.012-2.112,0.018-3.167c0.646-5.029-1.275-9.906-0.881-14.92c-0.637-2.364,1.627-5.487-1.857-7.107
			c-0.062-0.952-0.125-1.904-0.188-2.856c1.867-5.338-3.182-8.282-4.514-12.556c-1.914-6.144-5.949-11.396-10.857-15.615
			c-2.568-2.206-2.469-5.934-2.574-7.701c-0.24-4.093-2.994-6.502-4-9.852c-0.148-0.497-1.162-1.24-1.439-1.116
			c-4.184,1.872-7.342-0.993-10.654-2.448c-2.717-1.193-0.984-3.428,0.279-4.462c1.162-0.951,2.314-1.797,1.572-3.096
			c-0.85-1.488-1.443-2.504,0.326-3.614c1.924-1.208,3.074,0.258,4.396,1.179c0.271,0.19,0.559,0.368,0.807,0.586
			c1.283,1.134,0.26,4.708,2.656,3.928c2.24-0.728,0.824-3.803,0.992-5.825c0.121-1.45-0.027-3.024-0.488-4.398
			c-0.656-1.954,0.014-3.241,1.479-4.305c1.752-1.274,2.404-0.163,3.398,1.279c1.168,1.697,2.629,0.768,2.543-0.883
			c-0.248-4.737,3.43-8.955,1.707-13.849c-0.09-0.259,0.463-1.076,0.691-1.066c3.789,0.162,3.578-3.942,5.824-5.389
			c1.896-0.018,2.486,1.348,2.984,2.813c-0.969,5.706,1.178,11.236,0.957,16.901c-0.051,1.303,0.428,2.266,1.885,2.437
			c-0.006,1.01-0.012,2.021-0.018,3.031c-2.654,2.58-2.645,4.391,0.041,6.973c0.021,1.001,0.043,2.003,0.066,3.004
			c-1.588,1.264-0.939,3.038-0.984,4.61c-0.312,10.703,1.414,21.195,3.705,31.579c0.422,1.915-1.217,4.968,2.236,5.806
			c0.34,1.672,0.68,3.344,1.02,5.016c-1.027,0.625-1.008,1.281-0.061,1.965c4.285,21.164,2.934,42.569,2.576,63.915
			c-0.072,4.373,0.381,8.935-1.566,13.137c-0.787,1.3-3.48,2.553-0.096,3.953c-0.33,0.684-0.66,1.366-0.988,2.05
			c-1.514,0.162-1.705,1.268-1.889,2.49c-1.279,8.506-2.621,17.003-3.883,25.513c-0.199,1.348-0.105,2.751,1.781,2.951
			c0.037,1.01,0.074,2.02,0.111,3.03c-2.729,2.546-2.777,6.198-0.119,8.968c-0.004,1.35-0.008,2.699-0.01,4.049
			c-1.125,0.185-1.816,0.807-1.766,1.982c0.174,4.049-1.238,7.929-0.256,12.185c0.945,4.103,0.281,8.577,0.322,12.888
			C459.08,246.942,456.625,246.831,454.33,247.092z"/>
		<path style="fill-rule:evenodd;clip-rule:evenodd;fill:#4A4A4A;" d="M95.273,23.385c-1.995,0.063-3.58-0.252-5.153-1.985
			c-2.547-2.806-5.18-5.912-9.534-6.009c-2.056-0.046-2.314-1.399-2.289-3c18.584,7.397,37.884,12.959,54.601,24.779
			c20.13,14.232,38.298,30.642,56.105,47.54c0.912,0.866,2.294,1.464,2.381,3.021c0.252,2.251-0.256,5.875,0.89,6.509
			c4.596,2.544,2.205,6.003,1.772,9.022c-0.349,2.436-0.827,4.82-0.634,7.29c-0.031,0.33-0.04,0.665-0.097,0.99
			c-1.096,6.226-1.097,6.225-5.913,2.727c-0.246-4.049-2.204-6.567-6.401-6.847c-1.543-0.103-2.153-0.797-2.915-2.109
			c-1.489-2.563-3.268-5.021-6.855-4.994c-2.569,0.02-2.01-3.418-4.463-4.178c-1.9-0.589-2.879-3.573-5.696-2.823
			c-0.141,0.038-0.463-0.093-0.461-0.108c0.59-3.873-4.61-5.5-3.68-9.483c0.194-0.833,0.467-1.903-0.696-1.931
			c-5.11-0.122-5.498-6.224-9.685-7.499c-1.152-0.351-0.561-1.401-0.327-2.11c0.994-3.004,2.573-5.911-1.535-8.219
			c-0.615-0.346-0.69-1.811-2.06-0.934c-2.549,1.632-4.144-0.081-6.821-1.939c3.826-0.462,5.087-2.215,4.273-5.118
			c-0.421-1.501-1.495-2.783-2.966-2.98c-1.441-0.193-1.488,1.368-1.846,2.474c-1.047,3.24-3.069,3.549-4.875,0.872
			c-1.828-2.709-5.482-4.252-5.411-8.249c0.009-0.521-0.638-1.384-1.145-1.534c-4.43-1.309-5.894-5.1-7.656-8.733
			c-1.382-2.851-1.653,1.009-2.864,0.471c0-0.915-0.32-2.051,0.053-2.872c2.042-4.49-0.467-6.082-4.221-6.939
			c-1.205-0.275-2.145-0.832-2.795-1.893c-1.647-2.688-3.859-3.31-6.688-1.866c-1.827,0.932-3.152-0.042-4.357-1.306
			c0.136-0.15,0.272-0.301,0.408-0.451C95.569,23.108,95.421,23.247,95.273,23.385z"/>
		<path style="fill-rule:evenodd;clip-rule:evenodd;fill:#313131;" d="M265.211,95.232c1.004,7.297,3.419,14.519,1.165,21.991
			c-3.238-0.202-7.111,1.767-9.24,1.068c-4.195-1.376-6.939-0.005-9.506,2.128c-3.275,2.723-5.333,2.025-6.981-1.37
			c-1.389-2.861-3.576-4.116-7.45-4.218c4.219,3.501-1.516,4.494-0.361,7.496c-3.112-1.962-4.914-6.063-8.352-4.164
			c-2.659,1.469-4.702,0.754-7.069,0.351c-1.625-7.653,1.183-15.909-3.151-23.195c4.528-2.635,8.638,0.054,12.795,1.146
			C239.927,99.847,252.587,98.473,265.211,95.232z"/>
		<path style="fill-rule:evenodd;clip-rule:evenodd;fill:#313131;" d="M193.412,110.552c-0.193-2.47,0.285-4.854,0.634-7.29
			c0.433-3.02,2.824-6.478-1.772-9.022c-1.146-0.635-0.638-4.258-0.89-6.509c5.753,6.951,14.25,6.353,21.942,7.972
			c-0.385,6.673,2.215,13.05,1.956,19.711c-6.711-3.499-14.033-0.442-20.929-1.951C194.215,112.436,194.569,111.25,193.412,110.552z
			"/>
		<path style="fill-rule:evenodd;clip-rule:evenodd;fill:#313131;" d="M194.226,172.771c0.128-1.164,0.271-2.742,1.499-2.854
			c7.241-0.666,14.414-3.82,21.806-0.113c2.482,1.245,2.956,2.691,2.657,4.985C211.534,174.117,202.88,173.444,194.226,172.771z"/>
		<path style="fill-rule:evenodd;clip-rule:evenodd;fill:#313131;" d="M465.262,80.395c-3.453-0.838-1.814-3.891-2.236-5.806
			c-2.291-10.384-4.018-20.876-3.705-31.579c0.045-1.572-0.604-3.347,0.984-4.61C461.963,52.397,464.656,66.273,465.262,80.395z"/>
		<path style="fill-rule:evenodd;clip-rule:evenodd;fill:#313131;" d="M462.156,201.384c-1.887-0.2-1.98-1.604-1.781-2.951
			c1.262-8.51,2.604-17.007,3.883-25.513c0.184-1.223,0.375-2.328,1.889-2.49c0.617,9.103-1.641,17.879-3.256,26.704
			C462.637,198.528,462.562,200,462.156,201.384z"/>
		<path style="fill-rule:evenodd;clip-rule:evenodd;fill:#1A1A1A;" d="M215.283,115.414c0.259-6.661-2.341-13.038-1.956-19.711
			c0.313-0.128,0.626-0.256,0.939-0.384c4.334,7.286,1.526,15.542,3.15,23.194c1.79,4.533,1.08,9.256,1.054,13.928
			c-0.385-0.021-0.768-0.041-1.15-0.061C216.457,126.748,215.199,121.162,215.283,115.414z"/>
		<path style="fill-rule:evenodd;clip-rule:evenodd;fill:#313131;" d="M460.439,244.486c-0.041-4.311,0.623-8.785-0.322-12.888
			c-0.982-4.256,0.43-8.136,0.256-12.185c-0.051-1.176,0.641-1.798,1.766-1.982c0.416,6.727,0.822,13.453,1.254,20.179
			C463.572,240.414,462.854,242.807,460.439,244.486z"/>
		<path style="fill-rule:evenodd;clip-rule:evenodd;fill:#313131;" d="M460.215,25.392c-1.457-0.171-1.936-1.134-1.885-2.437
			c0.221-5.666-1.926-11.195-0.957-16.901C462.018,11.957,460.514,18.763,460.215,25.392z"/>
		<path style="fill-rule:evenodd;clip-rule:evenodd;fill:#4A4A4A;" d="M32.378,259.348c2.867-0.467,0.226-5.183,2.525-4.457
			c2.914,0.92,0.868,4.548,1.45,6.915c-1.071,0.854-2.319,1.165-3.659,1.192C32.588,261.782,32.483,260.565,32.378,259.348z"/>
		<path style="fill-rule:evenodd;clip-rule:evenodd;fill:#313131;" d="M462.148,213.382c-2.658-2.77-2.609-6.422,0.119-8.968
			C462.229,207.404,462.188,210.393,462.148,213.382z"/>
		<path style="fill-rule:evenodd;clip-rule:evenodd;fill:#313131;" d="M460.238,35.396c-2.686-2.582-2.695-4.394-0.041-6.973
			C460.211,30.747,460.225,33.071,460.238,35.396z"/>
		<path style="fill-rule:evenodd;clip-rule:evenodd;fill:#313131;" d="M467.135,168.38c-3.385-1.4-0.691-2.653,0.096-3.953
			C467.197,165.746,467.166,167.063,467.135,168.38z"/>
		<path style="fill-rule:evenodd;clip-rule:evenodd;fill:#313131;" d="M188.158,177.868c-1.331-2.844,0.829-2.282,2.317-2.375
			C189.703,176.285,188.93,177.076,188.158,177.868z"/>
		<path style="fill-rule:evenodd;clip-rule:evenodd;fill:#313131;" d="M466.221,87.375c-0.947-0.684-0.967-1.34,0.061-1.965
			C466.695,86.079,466.705,86.734,466.221,87.375z"/>
		<path style="fill-rule:evenodd;clip-rule:evenodd;fill:#4A4A4A;" d="M96.302,172.397c0.27-1.219-0.548-3.557,2.28-2.024
			c2.593,1.404,5.156-0.082,4.657-2.87c-0.213-1.189-0.32-1.688,0.663-2.346c6.997-4.677,6.845-5.255,10.793-14.562
			c0.751-1.771,3.419-6.074,6.833-5.558c3.836,0.579,6.871-1.77,10.376-1.58c3.159,0.17,3.636-1.547,3.395-4.044
			c0.42-0.819,1.154-0.973,1.979-0.935c0.302,0.748,0.424,1.979,0.935,2.17c4.884,1.832,3.184,5.409,2.518,8.757
			c-0.026,0.132,0.44,0.362,1.86,1.467c-0.731-4.816,3.495-6.548,4.191-10.034c0.312-1.564,0.205-2.338,1.933-2.451
			c2.135-0.14,1.897,1.022,1.708,2.501c-0.132,1.033-0.668,2.522,0.853,2.968c0.54,0.158,1.481-0.537,2.031-1.062
			c0.781-0.747,2.392-1.919,1.316-2.771c-3.554-2.816-0.59-4.477,0.777-6.48c0.63-0.04,1.26-0.08,1.891-0.121
			c0.979,1.008,0.518,2.937,2.512,3.703c0.614-3.184,5.229-2.026,5.614-5.553c0.611-0.002,1.222-0.004,1.833-0.007
			c0.856,4.421,4.934,3.127,7.284,3.198c2.079,0.062,5.045-1.797,4.864-5.232c0.964-0.023,1.929-0.049,2.893-0.072
			c0.697,0.982,1.363,0.937,2-0.061c1.369-0.492,2.286-1.795,3.899-1.93c2.692-0.227,4.448,0.172,4.144,3.575
			c-0.275,3.083-0.083,6.206-0.097,9.312c-2.679-0.105-4.092,1.105-3.958,3.862c0.075,1.549-0.461,2.905-1.023,4.315
			c-0.614,1.539-3.196,2.85-0.489,5.06c0.472,0.386-1.729,2.7-3.061,3.979c-1.479,1.42-4.64,3.444-0.571,5.75
			c0.245,0.14,0.306,0.581,0.488,0.857c2.148,3.272-3.759,3.588-2.405,6.563c-2.46,0.726,0.678,4.852-3.616,5.157
			c-3.942,0.28-5.942,4.19-7.215,7.754c-0.459,1.285-0.661,2.35-1.941,3.171c-5.42,3.479-10.572,7.157-15.198,11.85
			c-2.116,2.146-6.054,4.092-9.987,4.722c-3.926,0.629-6.435,4.393-10.012,6.067c-5.137,2.404-10.112,5.258-15.429,7.154
			c-14.61,5.211-29.332,10.118-44.084,14.916c-3.077,1.001-6.388,3.094-9.769,0.272c-1.622-1.353-2.472-2.311,0.119-3.482
			c2.812-1.272,2.691-3.369,1.38-5.743c-2.49-4.508,2.991-4.08,4.119-6.437c0.96-2.007-5.421-5.678,1.429-6.083
			c1.409-4.811,6.171-5.085,9.544-7.312c1.659-1.095,0.106-2.675-1.421-3.238c-1.303-0.48-1.979-1.215-1.695-2.584
			c0.342-1.644,1.491-1.474,2.708-1.089c2.411,0.764,3.721-0.855,3.903-2.652c0.25-2.465,2.081-2.636,3.692-3.405
			c0.45-1.545-6.046-1.706-0.879-4.056c-2.262-4.949,0.708-5.559,4.577-5.784c0.904-0.053-0.065-1.583,0.217-2.145
			c1.079-2.147,0.896-5.493,4.623-5.379c0.053,0.112,0.087,0.242,0.167,0.33c0.05,0.056,0.168,0.048,0.256,0.068
			C96.571,172.675,96.437,172.536,96.302,172.397z M139.905,152.673c-0.108-0.274-0.151-0.697-0.343-0.781
			c-0.192-0.084-0.533,0.17-0.809,0.276c0.108,0.274,0.15,0.698,0.342,0.782S139.628,152.782,139.905,152.673z M152.9,146.149
			c-0.273-0.12-0.545-0.241-0.818-0.362c-0.118,0.273-0.39,0.607-0.312,0.803c0.079,0.199,0.502,0.261,0.775,0.383
			C152.664,146.699,152.783,146.425,152.9,146.149z"/>
		<path style="fill-rule:evenodd;clip-rule:evenodd;fill:#4A4A4A;" d="M7.273,125.421c-0.03-0.648-0.061-1.297-0.09-1.947
			c0.161-1.278,0.556-2.43,1.086-3.647c1.188-2.723,3.156-5.216,3.044-8.417c1.611-5.676,4.853-10.073,10.107-12.892
			c1.632-0.219,3.287-0.702,4.894-0.576c1.506,0.119,1.659-3.77,4.209-0.888c2.226,2.515,0.996-2.012,2.897-1.834
			c1.373,2.462,4.238,3.579,6.586,5.365c4.35,3.309,5.322,8.588,2.041,11.356c1.076,0.819,3.268,0.191,3.211,2.443
			c-0.982,0.859-1.836,1.772-1.456,3.327c1.831-0.582,1.384-2.057,1.52-3.272c0.744,1.018,1.288,2.619,2.265,2.953
			c4.374,1.496,2.04,4.989,2.157,7.442c0.117,2.446-2.842,1.862-4.466,2.582c0.952-2.534-1.937-3.982-1.775-6.251
			c0.065-0.911,0.078-1.927-0.968-1.653c-3.033,0.791-3.712,4.58-6.722,5.611c-0.348,0.119,0.272,1.098,1.01,1.19
			c0.485,0.062,0.977,0.065,1.466,0.094l-0.002-0.002c1.975,2.896,4.903-0.957,7.011,0.991c3.073,4.83,6.388,0.117,8.06-0.85
			c5.206-3.006,5.583-3.381,7.575,2.098c1.981-0.365,3.715-3.406,5.625-1.527c1.194,1.175-0.337,2.939-2.274,3.294
			c-0.139-0.079-0.279-0.157-0.418-0.235c0.143,0.075,0.285,0.15,0.427,0.227c1.424,1.488,1.131,5.324,4.486,4.083
			c2.811-1.039,4.613-1.368,6.709,1.411c2.16,2.865,2.667,5.352,0.68,8.309c-0.615,0.014-1.229,0.027-1.844,0.041
			c-3.326-1.422-6.006-4.871-10.491-2.391c-1.664,0.92-0.93,3.922-3.53,3.399c-2.915-0.586-4.475,1.259-6.02,3.19
			c-0.638,0.035-1.276,0.07-1.916,0.104c-1.985-2.835-4.014-0.058-4.57,0.742c-2.18,3.135-9.918,0.798-7.38,8.169
			c-3.078-0.745-5.182-5.159-5.784-4.43c-2.625,3.18-5.25,0.711-7.034,0.093c-3.629-1.258-9.25-1.611-9.962-5.764
			c-1.249-7.274-6.824-12.398-8.15-19.422C9.272,126.785,8.453,125.873,7.273,125.421z"/>
		<path style="fill-rule:evenodd;clip-rule:evenodd;fill:#4A4A4A;" d="M218.471,132.441c0.024-4.672,0.734-9.395-1.055-13.928
			c2.369,0.404,4.411,1.119,7.07-0.35c3.438-1.899,5.239,2.202,8.352,4.164c-1.154-3.002,4.58-3.995,0.361-7.496
			c3.874,0.102,6.061,1.356,7.45,4.218c1.648,3.396,3.706,4.093,6.981,1.37c2.566-2.133,5.311-3.504,9.506-2.128
			c2.129,0.698,6.001-1.27,9.24-1.068c1.937,7.711-0.358,15.386-0.211,23.083c-2.532-0.115-2.371,2.836-3.956,3.811
			c-4.194-5.085-4.194-5.085-8.679-4.69c0.761-2.841,4.998-2.154,5.417-5.31c-8.685,0.773-10.298,1.881-11.093,7.617
			c-0.458-0.22-1.149-0.323-1.272-0.645c-2.155-5.627-7.908-9.65-7.349-16.49c0.146-1.792-1.316-2.071-2.574-2.498
			c-0.619-0.209-1.319-0.578-1.814,0.057c-0.833,1.067-0.587,2.268,0.148,3.225c3.539,4.604,1.618,10.338,3.229,15.357
			c0.635,1.98-1.202,2.717-2.758,3.517c-3.831,1.968-7.821,3.052-12.141,3.17c-0.74,0.021-1.414,0.789-1.988-0.261
			c-0.479-0.873-0.427-1.498,0.677-1.866c0.352-0.117,0.559-0.669,0.832-1.021C218.374,141.445,220.943,136.011,218.471,132.441z"/>
		<path style="fill-rule:evenodd;clip-rule:evenodd;fill:#313131;" d="M45.259,114.384c0.057-2.251-2.135-1.623-3.211-2.442
			c3.281-2.768,2.309-8.048-2.041-11.356c-2.348-1.786-5.214-2.903-6.586-5.365c-1.901-0.178-0.671,4.349-2.897,1.834
			c-2.55-2.882-2.704,1.006-4.209,0.888c-1.606-0.126-3.261,0.357-4.894,0.576c-0.084-5.212,2.464-8.361,7.473-8.021
			c4.657,0.316,8.479-4.207,13.471-1.455c0.279,0.696-2.148,2.205-1.199,1.807c3.95-1.656,4.453,3.606,7.862,3.122
			c1.907-0.271,1.596,2.278,0.232,3.175c-3.688,2.427-1.703,4.293,0.39,6.163c2.324,2.074,4.74,4.044,7.262,6.184
			c0.558-1.51,0.791-3.41,3.39-4.206c0,2.158,0.042,4.193-0.013,6.226c-0.046,1.711-0.125,3.658,1.661,4.344
			c3.834,1.474,5.932,5.046,9.634,7.049c7.171,3.88,16.098,4.181,22.002,10.923c1.091,1.245,4.273,1.932,6.541,3.476
			c-3.433-0.313-5.259,1.529-6.61,4.077c-0.154,0.291-0.325,0.895-0.351,0.887c-5.943-1.738-10.763,6.395-16.995,1.939
			c1.986-2.959,1.479-5.445-0.681-8.311c-2.096-2.779-3.898-2.45-6.709-1.411c-3.355,1.241-3.062-2.595-4.486-4.083l-0.009,0.009
			c1.937-0.354,3.468-2.119,2.274-3.294c-1.91-1.879-3.644,1.162-5.625,1.527c-1.992-5.479-2.369-5.104-7.575-2.098
			c-1.672,0.967-4.987,5.68-8.06,0.85l-0.021,0.02c1.625-0.72,4.583-0.136,4.466-2.582c-0.117-2.453,2.217-5.946-2.157-7.442
			c-0.978-0.334-1.521-1.936-2.265-2.953L45.259,114.384z M65.267,122.22c-0.188,0.277-0.543,0.604-0.641,0.996
			c-0.137,0.546,0.283,0.926,0.775,0.748c0.323-0.117,0.62-0.604,0.714-0.98C66.229,122.535,66.047,122.091,65.267,122.22z"/>
		<path style="fill-rule:evenodd;clip-rule:evenodd;fill:#4A4A4A;" d="M215.283,115.414c-0.084,5.748,1.174,11.333,2.036,16.966
			c1.926,5.556-0.195,11.483,1.889,17.125c-2.882-1.91-5.622-3.076-8.841-2.127c-3.016,0.89-6.56,0.251-8.97,0.83
			c-3.995,0.959-5.257-0.517-7.07-2.807c-2.275-10.648-0.167-21.293,0.026-31.939C201.25,114.972,208.572,111.916,215.283,115.414z"
			/>
		<path style="fill-rule:evenodd;clip-rule:evenodd;fill:#313131;" d="M194.327,145.402c1.812,2.29,3.075,3.766,7.07,2.807
			c2.411-0.579,5.955,0.06,8.97-0.83c3.219-0.949,5.959,0.217,8.841,2.127c-2.084-5.642,0.037-11.569-1.889-17.125
			c0.383,0.02,0.766,0.039,1.151,0.061c2.474,3.57-0.096,9.004,4.374,11.837c-0.273,0.353-0.48,0.904-0.832,1.021
			c-1.104,0.368-1.156,0.993-0.677,1.866c0.574,1.05,1.248,0.281,1.988,0.261c4.32-0.118,8.31-1.202,12.141-3.17
			c1.556-0.8,3.393-1.536,2.758-3.517c-1.61-5.02,0.31-10.754-3.229-15.357c-0.735-0.957-0.982-2.157-0.148-3.225
			c0.495-0.635,1.195-0.266,1.814-0.057c1.258,0.427,2.721,0.706,2.574,2.498c-0.559,6.84,5.193,10.863,7.349,16.49
			c0.123,0.321,0.813,0.425,1.272,0.645c0.795-5.736,2.408-6.844,11.093-7.617c-0.419,3.155-4.656,2.469-5.417,5.31
			c4.484-0.395,4.484-0.395,8.679,4.69c1.585-0.975,1.424-3.926,3.956-3.811c0.488,5.055-1.015,9.772-2.322,15.338
			c-3.358-4.709-8.31-2.979-12.325-4.144c-4.746-1.378-7.41-4.337-10.293-7.782c-2.205,2.807,0.518,5.056-0.102,7.498
			c-6.227-3.3-12.153,1.12-18.263,0.652c-5.335-0.408-10.459,2.494-15.809,0.91c-2.063-0.611-3.898-0.176-5.828,0.469
			c-2.327,0.778-5.354,2.479-7.012,0.471C192.399,151.525,192.62,148.167,194.327,145.402z"/>
		<path style="fill-rule:evenodd;clip-rule:evenodd;fill:#313131;" d="M7.273,125.421c1.18,0.451,1.999,1.363,2.216,2.516
			c1.326,7.023,6.901,12.147,8.15,19.422c0.712,4.152,6.333,4.506,9.962,5.764c1.783,0.618,4.408,3.087,7.034-0.093
			c0.602-0.729,2.706,3.685,5.784,4.43c-2.538-7.371,5.201-5.034,7.38-8.169c0.556-0.8,2.585-3.577,4.57-0.742
			c-1.242,4.801,4.03,3.268,5.625,5.927c-2.688,1.036-4.935,2.146-5.015,5.888c-0.085,3.946-4.894,1.194-6.045,2.845
			c-1.162,1.665,0.208,3.961-4.058,3.637c-4.948-0.377-9.024-1.232-12.769-4.409c-0.896-0.759-2.465-0.771-3.747-1.011
			c-0.97-0.181-2.4,0.224-2.898-0.31c-6.657-7.142-14.837-13.621-14.037-24.789C9.713,132.308,6.51,129.32,7.273,125.421z
			 M46.818,159.033c-0.021,0.247-0.042,0.494-0.064,0.742c0.093-0.115,0.251-0.225,0.261-0.347
			C47.026,159.302,46.893,159.166,46.818,159.033z"/>
		<path style="fill-rule:evenodd;clip-rule:evenodd;fill:#313131;" d="M155.398,133.542c-1.368,2.004-4.332,3.664-0.777,6.48
			c1.076,0.852-0.535,2.023-1.316,2.771c-0.549,0.524-1.491,1.22-2.031,1.062c-1.521-0.445-0.985-1.935-0.853-2.968
			c0.19-1.479,0.427-2.641-1.708-2.501c-1.728,0.113-1.621,0.887-1.933,2.451c-0.696,3.486-4.922,5.218-4.191,10.034
			c-1.419-1.104-1.886-1.335-1.86-1.467c0.666-3.348,2.366-6.925-2.518-8.757c-0.511-0.191-0.633-1.422-0.935-2.17
			c2.354-4.772,7.273-2.643,10.912-3.941C150.425,133.738,152.984,133.843,155.398,133.542z"/>
		<path style="fill-rule:evenodd;clip-rule:evenodd;fill:#313131;" d="M54.286,148.445c1.545-1.932,3.105-3.776,6.02-3.19
			c2.6,0.522,1.866-2.479,3.53-3.399c4.485-2.48,7.165,0.969,10.491,2.391c-6.282,1.486-12.4,3.407-18.241,6.236
			C54.391,151.302,54.515,149.477,54.286,148.445z"/>
		<path style="fill-rule:evenodd;clip-rule:evenodd;fill:#313131;" d="M408.494,249.843c3.734-0.616,7.02-0.855,10.146-2.731
			c2.07-1.242,5.088,0.557,7.133,2.1c1.059,0.799,0.568,3.247-0.906,2.913c-4.227-0.958-8.439,2.777-12.525-0.189
			C411.311,251.187,409.666,251.908,408.494,249.843z"/>
		<path style="fill-rule:evenodd;clip-rule:evenodd;fill:#4A4A4A;" d="M25.394,237.495c3.061,0.017,5.143-2.928,8.798-2.293
			c1.766,0.307,3.263,0.352,3.599,1.845c0.435,1.936-1.284,3.005-3.008,3.226c-2.013,0.258-3.97,0.407-5.466,1.98
			c-0.666,0.003-1.332,0.007-1.999,0.013c-0.03-1.238-0.736-1.822-1.904-1.955C25.407,239.372,25.401,238.433,25.394,237.495z"/>
		<path style="fill-rule:evenodd;clip-rule:evenodd;fill:#313131;" d="M179.397,129.531c0.181,3.436-2.786,5.295-4.864,5.232
			c-2.35-0.071-6.428,1.223-7.284-3.198C171.13,129.887,175.259,129.681,179.397,129.531z"/>
		<path style="fill-rule:evenodd;clip-rule:evenodd;fill:#313131;" d="M11.314,111.409c0.111,3.202-1.857,5.695-3.044,8.417
			c-0.531,1.218-0.926,2.369-1.086,3.647c-3.844-2.434-1.769-5.632-0.448-8.043C7.592,113.864,8.928,111.748,11.314,111.409z"/>
		<path style="fill-rule:evenodd;clip-rule:evenodd;fill:#313131;" d="M51.745,170.053c-1.291-0.75-3.486-0.41-3.405-2.802
			c0.036-1.068-0.177-2.857,1.458-2.308c1.359,0.457,4.149-0.676,3.922,2.251C53.64,168.212,53.699,170.006,51.745,170.053z"/>
		<path style="fill-rule:evenodd;clip-rule:evenodd;fill:#313131;" d="M165.415,131.572c-0.385,3.526-5,2.369-5.614,5.553
			c-1.995-0.767-1.534-2.695-2.512-3.703C159.807,131.968,162.49,131.238,165.415,131.572z"/>
		<path style="fill-rule:evenodd;clip-rule:evenodd;fill:#313131;" d="M25.414,240.31c1.168,0.133,1.874,0.717,1.904,1.955
			c-0.789,1.873-2.354,2.536-4.458,2.816C22.147,242.565,25.764,242.427,25.414,240.31z"/>
		<path style="fill-rule:evenodd;clip-rule:evenodd;fill:#313131;" d="M346.795,38.854c1.006,0.458,2,1.149,2.035,2.385
			c0.029,1.044-0.957,1.119-1.793,1.079c-1.223-0.059-1.684-0.829-1.67-1.938C345.379,39.518,345.596,38.764,346.795,38.854z"/>
		<path style="fill-rule:evenodd;clip-rule:evenodd;fill:#313131;" d="M72.293,24.689c-2.565,1.217-3.836-0.684-6.489-0.554
			C69.19,22.537,69.19,22.537,72.293,24.689z"/>
		<path style="fill-rule:evenodd;clip-rule:evenodd;fill:#313131;" d="M462.432,95.299c3.484,1.621,1.221,4.743,1.857,7.107
			C461.234,100.674,463.059,97.667,462.432,95.299z"/>
		<path style="fill-rule:evenodd;clip-rule:evenodd;fill:#313131;" d="M69.698,149.801c-0.245,0.103-0.634,0.403-1.02,0.397
			c-0.727-0.011-1.14-0.506-0.761-1.182c0.15-0.268,0.796-0.392,1.192-0.35C69.553,148.713,69.966,149.024,69.698,149.801z"/>
		<path style="fill-rule:evenodd;clip-rule:evenodd;fill:#313131;" d="M465.168,123.326c0.02,1.043,0.037,2.086,0.057,3.129
			c-0.789-0.162-1.623-0.293-1.766-1.295C463.277,123.873,464.182,123.549,465.168,123.326z"/>
		<path style="fill-rule:evenodd;clip-rule:evenodd;fill:#313131;" d="M465.17,117.326c-0.006,1.056-0.01,2.111-0.018,3.167
			c-0.77-0.201-1.582-0.373-1.699-1.361C463.305,117.867,464.189,117.541,465.17,117.326z"/>
		<path style="fill-rule:evenodd;clip-rule:evenodd;fill:#313131;" d="M107.283,68.398c-0.12,0.893,0.305,2.011-0.868,2.467
			c-0.188,0.073-0.851-0.448-0.899-0.757c-0.21-1.327,0.775-1.555,1.782-1.695L107.283,68.398z"/>
		<path style="fill-rule:evenodd;clip-rule:evenodd;fill:#313131;" d="M184.29,129.398c-0.637,0.997-1.304,1.043-2,0.061
			C182.925,128.404,183.592,128.375,184.29,129.398z"/>
		<path style="fill-rule:evenodd;clip-rule:evenodd;fill:#313131;" d="M172.282,110.397c0,0.97,0,1.939,0,3.266
			c-1.545-1.448-0.917-2.364,0.016-3.252L172.282,110.397z"/>
		<path style="fill-rule:evenodd;clip-rule:evenodd;fill:#313131;" d="M75.369,121.726c0.166,0.207,0.331,0.414,0.496,0.621
			c-0.293,0.23-0.587,0.461-0.88,0.691c-0.117-0.254-0.354-0.531-0.312-0.756C74.708,122.09,75.062,121.957,75.369,121.726z"/>
		<path style="fill-rule:evenodd;clip-rule:evenodd;fill:#313131;" d="M286.822,126.105c0.14,0.295,0.369,0.561,0.357,0.814
			c-0.012,0.25-0.27,0.488-0.42,0.731c-0.129-0.259-0.363-0.521-0.356-0.774C286.41,126.626,286.66,126.382,286.822,126.105z"/>
		<path style="fill-rule:evenodd;clip-rule:evenodd;fill:#313131;" d="M98.004,147.023c0.044-0.124,0.083-0.35,0.132-0.352
			c0.14-0.006,0.283,0.079,0.425,0.129c-0.043,0.123-0.083,0.349-0.132,0.351C98.289,147.157,98.146,147.072,98.004,147.023z"/>
		<path style="fill-rule:evenodd;clip-rule:evenodd;fill:#4A4A4A;" d="M437.189,27.856c-0.631,0.452-1.078,0.999-1.609,1.102
			c-0.896,0.173-1.102-0.585-0.756-1.177c0.268-0.458,0.904-0.759,1.441-0.958C436.4,26.774,436.779,27.385,437.189,27.856z"/>
		<path style="fill-rule:evenodd;clip-rule:evenodd;fill:#1A1A1A;" d="M367.016,120.828c0.281,0.119,0.559,0.238,0.838,0.359
			c-0.121,0.277-0.18,0.713-0.379,0.791c-0.201,0.078-0.541-0.195-0.82-0.314C366.773,121.384,366.895,121.107,367.016,120.828z"/>
		<path style="fill-rule:evenodd;clip-rule:evenodd;fill:#1A1A1A;" d="M346.297,126.4c-0.141-0.073-0.283-0.146-0.424-0.221
			c0.137,0.078,0.275,0.155,0.412,0.232C346.285,126.413,346.297,126.4,346.297,126.4z"/>
		<path style="fill-rule:evenodd;clip-rule:evenodd;fill:#4A4A4A;" d="M400.783,170.154c0.113,5.725-4.615,13.134-9.281,14.88
			c-0.303,0.113-0.879,0.262-0.93,0.172c-2.885-5.203-8.443-0.888-12.189-3.439c-1.852-1.261-4.668-1.296-3.27-4.711
			c0.236-0.581-0.332-1.462-1.096-1.286c-7.23,1.674-9.09-5.218-13.34-8.281c-0.525-0.378-1.289-1.073-1.654-0.923
			c-4.281,1.776-8.557-1.546-12.746,0.011c-2.146,0.797-4.186,0.503-5.465-1.007c-1.453-1.715,0.459-2.801,1.596-4.01
			c1.566-1.667-0.545-2.136-1.271-3.015c-0.832-1.004-1.119-2.184-0.447-3.224c0.754-1.165,2.008-1.045,3.078-0.333
			c0.674,0.449,1.27,1.402,2.111,0.987c7.889-3.897,15.33,0.603,22.955,1.257c2.453,0.211,4.787-0.353,6.771-1.018
			c6.98-2.342,11.771,2.827,17.57,4.395c1.025,0.277,0.578,1.271,0.584,2.089c0.02,2.233,2.951,2.216,3.436,4.17
			C402.312,164.203,399.057,169.818,400.783,170.154z"/>
		<path style="fill-rule:evenodd;clip-rule:evenodd;fill:#1A1A1A;" d="M313.299,155.416c0.137-0.988,0.348-1.936,1.65-1.837
			c0.215,0.016,0.607,0.389,0.578,0.515c-0.285,1.188-1.314,1.176-2.246,1.304L313.299,155.416z"/>
		<path style="fill-rule:evenodd;clip-rule:evenodd;fill:#1A1A1A;" d="M50.441,234.539c1.827,2.783-1.015,3.294-1.82,5.142
			c2.418,0.809,6.577,0.925,3.375,5.192c-0.381,0.508-1.135,1.33-1.428,1.223c-4.068-1.493-7.284-0.469-10.851,2.026
			c-1.957,1.369-4.104-1.394-5.033-3.564c-0.256-0.599,0.507-1.882,1.128-2.548c0.85-0.91,1.698-0.234,2.554,0.414
			c2.376,1.801,4.708,1.058,5.699-1.33C45.399,237.88,48.591,237.101,50.441,234.539z"/>
		<path style="fill-rule:evenodd;clip-rule:evenodd;fill:#1A1A1A;" d="M185.292,177.408c-0.082,0.142-0.165,0.283-0.247,0.425
			c0.081-0.144,0.162-0.286,0.242-0.429L185.292,177.408z"/>
		<path style="fill-rule:evenodd;clip-rule:evenodd;fill:#4A4A4A;" d="M145.737,68.75c-0.074-0.108-0.148-0.217-0.223-0.326
			c0.166-0.088,0.331-0.175,0.497-0.263c0.019,0.135,0.086,0.29,0.042,0.399C146.016,68.651,145.847,68.688,145.737,68.75z"/>
		<path style="fill-rule:evenodd;clip-rule:evenodd;fill:#313131;" d="M95.273,23.385c0.148-0.138,0.296-0.276,0.444-0.415
			c-0.136,0.15-0.272,0.3-0.408,0.451C95.31,23.421,95.273,23.385,95.273,23.385z"/>
		<path style="fill-rule:evenodd;clip-rule:evenodd;fill:#313131;" d="M139.904,152.675c-0.276,0.106-0.617,0.359-0.809,0.275
			s-0.234-0.508-0.342-0.782c0.276-0.106,0.616-0.36,0.809-0.276C139.753,151.976,139.796,152.399,139.904,152.675z"/>
		<path style="fill-rule:evenodd;clip-rule:evenodd;fill:#313131;" d="M152.901,146.15c-0.118,0.275-0.237,0.549-0.355,0.822
			c-0.272-0.122-0.696-0.184-0.775-0.383c-0.078-0.195,0.194-0.529,0.312-0.803C152.355,145.908,152.627,146.029,152.901,146.15z"/>
		<path style="fill-rule:evenodd;clip-rule:evenodd;fill:#313131;" d="M96.302,172.397c0.134,0.139,0.269,0.278,0.403,0.418
			c-0.088-0.021-0.207-0.013-0.256-0.068c-0.08-0.088-0.114-0.218-0.167-0.33C96.282,172.417,96.302,172.397,96.302,172.397z"/>
		<path style="fill-rule:evenodd;clip-rule:evenodd;fill:#313131;" d="M38.292,126.407c-0.489-0.028-0.981-0.032-1.466-0.094
			c-0.738-0.093-1.357-1.071-1.01-1.19c3.01-1.031,3.689-4.82,6.722-5.611c1.046-0.274,1.034,0.742,0.968,1.653
			c-0.162,2.269,2.727,3.717,1.775,6.251c0,0,0.02-0.02,0.02-0.02c-2.108-1.948-5.037,1.904-7.011-0.991
			c0.079-0.143,0.158-0.285,0.237-0.429C38.448,126.121,38.37,126.263,38.292,126.407z"/>
		<path style="fill-rule:evenodd;clip-rule:evenodd;fill:#313131;" d="M45.324,114.438c-0.136,1.215,0.311,2.691-1.52,3.272
			c-0.381-1.554,0.474-2.467,1.456-3.327C45.259,114.384,45.324,114.438,45.324,114.438z"/>
		<path style="fill-rule:evenodd;clip-rule:evenodd;fill:#313131;" d="M64.295,130.402c-0.142-0.076-0.285-0.151-0.427-0.227
			c0.14,0.078,0.279,0.156,0.418,0.235L64.295,130.402z"/>
		<path style="fill-rule:evenodd;clip-rule:evenodd;fill:#4A4A4A;" d="M65.267,122.22c0.78-0.129,0.962,0.314,0.849,0.764
			c-0.095,0.376-0.391,0.863-0.714,0.98c-0.492,0.178-0.913-0.202-0.775-0.748C64.724,122.825,65.079,122.498,65.267,122.22z"/>
		<path style="fill-rule:evenodd;clip-rule:evenodd;fill:#1A1A1A;" d="M46.82,159.033c0.072,0.133,0.206,0.27,0.195,0.396
			c-0.01,0.122-0.168,0.231-0.261,0.347C46.776,159.527,46.797,159.28,46.82,159.033z"/>
		<path style="fill-rule:evenodd;clip-rule:evenodd;fill:#4A4A4A;" d="M38.292,126.407c0.078-0.144,0.156-0.286,0.235-0.431
			c-0.079,0.144-0.158,0.286-0.237,0.429L38.292,126.407z"/>
	</g>
</g>
</svg>
